<svg height="52pt" viewBox="0 -15 451.57448 451" width="52pt" xmlns="http://www.w3.org/2000/svg" xmlns:xlink="http://www.w3.org/1999/xlink"><linearGradient id="lg1"><stop offset=".322" stop-color="#a163f5"/><stop offset=".466" stop-color="#b074ee"/><stop offset=".752" stop-color="#d8a1dd"/><stop offset=".898" stop-color="#efbad3"/></linearGradient><linearGradient id="linear0" gradientUnits="userSpaceOnUse" x1="225.785441" x2="225.785441" xlink:href="#lg1" y1="439.405741" y2="-14.598259"/><linearGradient id="linear1" gradientUnits="userSpaceOnUse" x1="177.785441" x2="177.785441" xlink:href="#lg1" y1="439.405741" y2="-14.598259"/><linearGradient id="linear2" gradientUnits="userSpaceOnUse" x1="273.785441" x2="273.785441" xlink:href="#lg1" y1="439.405741" y2="-14.598259"/><linearGradient id="linear5" gradientUnits="userSpaceOnUse" x1="347.028441" x2="347.028441" xlink:href="#lg1" y1="439.405741" y2="-14.598259"/><linearGradient id="linear7" gradientUnits="userSpaceOnUse" x1="104.542441" x2="104.542441" xlink:href="#lg1" y1="439.405741" y2="-14.598259"/><path d="m425.957031 226.0625c13.332031-11.464844 19.8125-29 17.140625-46.382812-2.675781-17.378907-14.121094-32.15625-30.289062-39.082032 7.179687-24.320312.421875-50.613281-17.589844-68.457031s-44.371094-24.351563-68.617188-16.945313c3.613282-16.96875-2.753906-34.511718-16.414062-45.207031-13.65625-10.699219-32.214844-12.679687-47.824219-5.101562-15.605469 7.574219-25.53125 23.378906-25.578125 40.730469v69.789062h-22v-69.789062c-.023437-17.359376-9.945312-33.183594-25.558594-40.765626-15.613281-7.585937-34.183593-5.601562-47.84375 5.105469-13.660156 10.710938-20.015624 28.269531-16.375 45.242188-24.253906-7.433594-50.628906-.933594-68.65625 16.914062-18.023437 17.851563-24.78125 44.160157-17.585937 68.484375-16.15625 6.9375-27.597656 21.710938-30.273437 39.085938-2.671876 17.378906 3.800781 34.90625 17.125 46.378906-19.402344 15.660156-28.824219 40.582031-24.640626 65.160156 4.183594 24.574219 21.320313 44.976563 44.808594 53.335938v18.488281c-.066406 29.296875 23.632813 53.09375 52.929688 53.144531 9.535156.007813 18.890625-2.582031 27.0625-7.492187 15.597656 14.121093 38.042968 17.734375 57.285156 9.226562 19.246094-8.511719 31.675781-27.550781 31.722656-48.589843v-61.929688h22v61.929688c.058594 21.042968 12.496094 40.082031 31.742188 48.589843 19.246094 8.507813 41.699218 4.894531 57.300781-9.226562 8.148437 4.910156 17.480469 7.5 26.992187 7.492187 29.300782-.046875 53.015626-23.839844 52.964844-53.144531v-18.488281c23.488282-8.359375 40.628906-28.757813 44.8125-53.339844 4.183594-24.578125-5.242187-49.5-24.640625-65.160156zm-128.171875-98.65625c6.625.007812 11.992188 5.375 12 12v144c-.007812 6.625-5.375 11.992188-12 12h-144c-6.625-.007812-11.992187-5.375-12-12v-144c.007813-6.625 5.375-11.992188 12-12zm-95 241.929688c-.058594 15.898437-9.238281 30.351562-23.605468 37.160156-14.367188 6.808594-31.367188 4.765625-43.710938-5.253906 10.375-9.996094 16.226562-23.785157 16.210938-38.195313-.042969-3.289063-2.722657-5.933594-6.015626-5.933594-3.289062 0-5.96875 2.644531-6.011718 5.933594.101562 14.695313-7.675782 28.3125-20.382813 35.691406-12.707031 7.375-28.394531 7.375-41.101562 0-12.707031-7.378906-20.484375-20.996093-20.382813-35.691406v-15.367187c3.652344.652343 7.359375.964843 11.070313.941406 1.582031-.003906 3.09375-.640625 4.203125-1.769532 1.105468-1.128906 1.714844-2.652343 1.691406-4.230468-.027344-3.324219-2.730469-6.003906-6.054688-6-31.398437.011718-56.863281-25.4375-56.875-56.835938-.011718-31.402344 25.433594-56.867187 56.835938-56.878906 3.3125-.003906 5.996094-2.691406 5.996094-6.003906-.003906-3.316406-2.691406-6-6.007813-5.996094-11.34375-.011719-22.511719 2.792969-32.5 8.167969-10.40625-7.449219-16.484375-19.539063-16.257812-32.339844.222656-12.796875 6.722656-24.664063 17.382812-31.746094 1.867188-1.234375 3.835938-2.304687 5.886719-3.203125.625 1.253906 1.289062 2.492188 1.988281 3.707032 1.070313 1.867187 3.054688 3.015624 5.203125 3.015624 2.152344.003907 4.136719-1.144531 5.207032-3.007812 1.070312-1.867188 1.0625-4.160156-.019532-6.015625-13.457031-23.316406-8.71875-52.875 11.351563-70.816406 20.066406-17.941407 49.96875-19.355469 71.640625-3.382813 2.664062 1.953125 6.410156 1.382813 8.371094-1.273437 1.964843-2.660157 1.410156-6.40625-1.242188-8.378907-1.757812-1.300781-3.570312-2.5-5.421875-3.613281-6.820313-12.195312-5.328125-27.34375 3.742187-37.976562 9.066407-10.628907 23.792969-14.492188 36.910157-9.679688 13.117187 4.8125 21.855469 17.28125 21.898437 31.253907v69.789062h-49c-13.25.015625-23.984375 10.75-24 24v144c.015625 13.246094 10.75 23.984375 24 24h49zm180.144532-32.714844c-3.316407 0-6 2.683594-6 6-.050782 1.566406.539062 3.089844 1.625 4.21875 1.089843 1.128906 2.589843 1.769531 4.160156 1.78125 3.710937.023437 7.417968-.289063 11.070312-.941406v15.367187c0 22.636719-18.347656 40.984375-40.980468 40.984375-22.636719 0-40.984376-18.347656-40.984376-40.984375 0-3.289063-2.667968-5.957031-5.957031-5.957031-3.292969 0-5.960937 2.667968-5.960937 5.957031 0 14.414063 5.871094 28.207031 16.261718 38.195313-12.355468 10.019531-29.359374 12.0625-43.734374 5.257812-14.375-6.808594-23.570313-21.257812-23.644532-37.164062v-61.929688h49c13.25-.015625 23.984375-10.753906 24-24v-144c-.015625-13.25-10.75-23.984375-24-24h-49v-69.789062c.023438-13.984376 8.753906-26.476563 21.878906-31.296876 13.125-4.820312 27.867188-.953124 36.933594 9.691407 9.070313 10.644531 10.546875 25.8125 3.699219 38.003906-1.851563 1.117187-3.644531 2.3125-5.398437 3.613281-2.667969 1.972656-3.226563 5.730469-1.253907 8.398438 1.972657 2.664062 5.730469 3.226562 8.398438 1.253906 21.671875-15.972656 51.570312-14.558594 71.640625 3.382812 20.066406 17.941407 24.808594 47.496094 11.359375 70.816407-1.085938 1.855469-1.09375 4.148437-.023438 6.011719 1.070313 1.863281 3.058594 3.011718 5.207031 3.011718 2.148438 0 4.132813-1.152344 5.203126-3.015625.699218-1.214843 1.363281-2.453125 1.988281-3.707031 10.539062 4.605469 18.5 13.644531 21.738281 24.679688 3.234375 11.039062 1.414062 22.945312-4.972656 32.511718-2.605469 3.933594-5.914063 7.355469-9.753906 10.097656-9.988282-5.375-21.15625-8.179687-32.5-8.167968-3.316407 0-6 2.6875-6 6s2.683593 6 6 6c31.398437 0 56.855468 25.457031 56.855468 56.855468 0 31.402344-25.457031 56.859376-56.855468 56.859376zm0 0" fill="url(#linear0)"/><path d="m177.785156 104.921875c3.3125 0 6-2.6875 6-6v-17.515625c0-3.3125-2.6875-6-6-6s-6 2.6875-6 6v17.515625c0 3.3125 2.6875 6 6 6zm0 0" fill="url(#linear1)"/><path d="m273.785156 75.40625c-3.3125 0-6 2.6875-6 6v17.515625c0 3.3125 2.6875 6 6 6s6-2.6875 6-6v-17.515625c0-3.3125-2.6875-6-6-6zm0 0" fill="url(#linear2)"/><path d="m177.785156 347.40625c3.3125 0 6-2.6875 6-6v-17.515625c0-3.3125-2.6875-6-6-6s-6 2.6875-6 6v17.515625c0 3.3125 2.6875 6 6 6zm0 0" fill="url(#linear1)"/><path d="m273.785156 317.890625c-3.3125 0-6 2.6875-6 6v17.515625c0 3.3125 2.6875 6 6 6s6-2.6875 6-6v-17.515625c0-3.3125-2.6875-6-6-6zm0 0" fill="url(#linear2)"/><path d="m355.785156 157.40625h-17.515625c-3.3125 0-6 2.6875-6 6s2.6875 6 6 6h17.515625c3.3125 0 6-2.6875 6-6s-2.6875-6-6-6zm0 0" fill="url(#linear5)"/><path d="m355.785156 253.40625h-17.515625c-3.3125 0-6 2.6875-6 6s2.6875 6 6 6h17.515625c3.3125 0 6-2.6875 6-6s-2.6875-6-6-6zm0 0" fill="url(#linear5)"/><path d="m113.300781 157.40625h-17.515625c-3.3125 0-6 2.6875-6 6s2.6875 6 6 6h17.515625c3.3125 0 6-2.6875 6-6s-2.6875-6-6-6zm0 0" fill="url(#linear7)"/><path d="m113.300781 253.40625h-17.515625c-3.3125 0-6 2.6875-6 6s2.6875 6 6 6h17.515625c3.3125 0 6-2.6875 6-6s-2.6875-6-6-6zm0 0" fill="url(#linear7)"/><path d="m160.785156 282.40625h130c3.3125 0 6-2.6875 6-6v-130c0-3.3125-2.6875-6-6-6h-130c-3.3125 0-6 2.6875-6 6v130c0 3.3125 2.6875 6 6 6zm6-130h118v118h-118zm0 0" fill="url(#linear0)"/></svg>